<svg width="100" height="100" viewBox="0 0 100 100" fill="none" xmlns="http://www.w3.org/2000/svg">
<circle cx="50" cy="50" r="50" fill="#C4C4C4"/>
<path d="M50 62.7747C55.908 62.7747 60.7143 57.9682 60.7143 52.0602C60.7143 46.1524 55.908 41.3461 50 41.3461C44.092 41.3461 39.2857 46.1522 39.2857 52.0602C39.2857 57.9682 44.092 62.7747 50 62.7747ZM50 44.4073C54.22 44.4073 57.6531 47.8404 57.6531 52.0602C57.6531 56.2802 54.22 59.7135 50 59.7135C45.78 59.7135 42.3469 56.28 42.3469 52.0602C42.3469 47.8404 45.78 44.4073 50 44.4073ZM40.1673 32H28.5859V36.1214H25V67.9996H75V36.1214H40.1673V32ZM31.6471 35.0612H37.1061V35.8992H31.6471V35.0612ZM71.9388 39.1827V64.9384H28.0612V39.1827H71.9388ZM54.8298 47.2308H45.17V56.8904H54.8298V47.2308ZM51.7686 53.8292H48.2312V50.292H51.7686V53.8292ZM68.9029 44.3808H61.9047V41.3196H68.9029V44.3808Z" fill="black"/>
</svg>
